# xmcd
#
# Track frame offsets:
#	150
#	16426
#	34311
#	51209
#	69099
#	85787
#	103054
#	120835
#	141427
#	159917
#	177620
#	194420
#
# Disc length: 2976 seconds
#
# Revision: 0
# Processed by: cddbd v1.5.2PL0 Copyright (c) Steve Scherf et al.
# Submitted via: dBpowerAMP V4.0
#
DISCID=9e0b9e0c
DTITLE=James Gordon and Sons - Nine Green Bottles
DYEAR=2007
DGENRE=Folk
TTITLE0=Inukshuk
TTITLE1=The moon looks like it's crying
TTITLE2=Another Silver Maple Comes Down
TTITLE3=Casey Sheehan Didn't die for nothing
TTITLE4=Short Line
TTITLE5=Levee's Broken
TTITLE6=Shkendemowin
TTITLE7=Nine Green Bottles
TTITLE8=Manitoulin
TTITLE9=Since this is just a song
TTITLE10=Rattle of a teacup
TTITLE11=The secret of rock and Roll
EXTD=
EXTT0=
EXTT1=
EXTT2=
EXTT3=
EXTT4=
EXTT5=
EXTT6=
EXTT7=
EXTT8=
EXTT9=
EXTT10=
EXTT11=
PLAYORDER=
